name Walk1.mot
datacolumns 19
datarows 12
range 1.23600000 1.24700000
endheader

                time	   L_ground_force_vx	   L_ground_force_vy	   L_ground_force_vz	   L_ground_force_px	   L_ground_force_py	   L_ground_force_pz	   R_ground_force_vx	   R_ground_force_vy	   R_ground_force_vz	   R_ground_force_px	   R_ground_force_py	   R_ground_force_pz	   L_ground_torque_x	   L_ground_torque_y	   L_ground_torque_z	   R_ground_torque_x	   R_ground_torque_y	   R_ground_torque_z	
          1.23600000	         -2.60730247	         75.80439014	         -5.31192693	          0.00268225	          0.00000000	          0.00323250	         -0.00000000	          0.00000000	          0.00000000	         -0.00000000	          0.00000000	         -0.00000000	          0.00000000	          0.11682506	          0.00000000	          0.00000000	         -0.00000000	          0.00000000	
          1.23700000	         -3.14121370	         82.24104421	         -5.77354718	         -0.00942693	          0.00000000	          0.00150318	         -0.00000000	          0.00000000	          0.00000000	         -0.00000000	          0.00000000	         -0.00000000	          0.00000000	          0.12932967	          0.00000000	          0.00000000	         -0.00000000	          0.00000000	
          1.23800000	         -3.72619188	         88.86373626	         -6.24901339	         -0.02149562	          0.00000000	         -0.00021712	         -0.00000000	          0.00000000	          0.00000000	         -0.00000000	          0.00000000	         -0.00000000	          0.00000000	          0.14253192	          0.00000000	          0.00000000	         -0.00000000	          0.00000000	
          1.23900000	         -4.36425932	         95.66394519	         -6.73775943	         -0.03349420	          0.00000000	         -0.00192419	         -0.00000000	          0.00000000	          0.00000000	         -0.00000000	          0.00000000	         -0.00000000	          0.00000000	          0.15644062	          0.00000000	          0.00000000	         -0.00000000	          0.00000000	
          1.24000000	         -5.05737980	        102.63176175	         -7.23912151	         -0.04539271	          0.00000000	         -0.00361383	         -0.00000000	          0.00000000	          0.00000000	         -0.00000000	          0.00000000	         -0.00000000	          0.00000000	          0.17106236	          0.00000000	          0.00000000	         -0.00000000	          0.00000000	
          1.24100000	         -5.80744851	        109.75578241	         -7.75233062	         -0.05716070	          0.00000000	         -0.00528181	         -0.00000000	         -0.00000000	          0.00000000	         -0.00000000	          0.00000000	         -0.00000000	          0.00000000	          0.18640128	          0.00000000	          0.00000000	         -0.00000000	          0.00000000	
          1.24200000	         -6.61627766	        117.02301916	         -8.27650599	         -0.06876727	          0.00000000	         -0.00692390	         -0.00000000	         -0.00000000	          0.00000000	         -0.00000000	          0.00000000	         -0.00000000	          0.00000000	          0.20245884	          0.00000000	          0.00000000	         -0.00000000	          0.00000000	
          1.24300000	         -7.48556790	        124.41887981	         -8.81065300	         -0.08018206	          0.00000000	         -0.00853598	         -0.00000000	         -0.00000000	          0.00000000	         -0.00000000	          0.00000000	         -0.00000000	          0.00000000	          0.21923350	          0.00000000	          0.00000000	         -0.00000000	          0.00000000	
          1.24400000	         -8.41686284	        131.92726181	         -9.35366607	         -0.09137678	          0.00000000	         -0.01011432	         -0.00000000	         -0.00000000	          0.00000000	         -0.00000000	          0.00000000	         -0.00000000	          0.00000000	          0.23672047	          0.00000000	          0.00000000	         -0.00000000	          0.00000000	
          1.24500000	         -9.41149541	        139.53075202	         -9.90433257	         -0.10232615	          0.00000000	         -0.01165569	         -0.00000000	         -0.00000000	          0.00000000	         -0.00000000	          0.00000000	         -0.00000000	          0.00000000	          0.25491168	          0.00000000	          0.00000000	         -0.00000000	          0.00000000	
          1.24600000	        -10.47053251	        147.21092354	        -10.46133584	         -0.11300797	          0.00000000	         -0.01315735	         -0.00000000	         -0.00000000	          0.00000000	         -0.00000000	          0.00000000	         -0.00000000	          0.00000000	          0.27379581	          0.00000000	          0.00000000	         -0.00000000	          0.00000000	
          1.24700000	        -11.59471669	        154.94873833	        -11.02325886	         -0.12340297	          0.00000000	         -0.01461699	          0.00000000	         -0.00000001	          0.00000000	         -0.00000000	          0.00000000	         -0.00000000	          0.00000000	          0.29335862	          0.00000000	          0.00000000	         -0.00000000	          0.00000000	
